<svg xmlns="http://www.w3.org/2000/svg" viewBox="0 0 24 24"><path d="M20.5541 5.99998c0-.24961-.1841-.46098-.4314-.49526-.2472-.03428-.4819.11903-.5498.35922l-2.6945 9.52996v-5.81892c0-.22952-.1563-.42956-.379-.48512-.2226-.05557-.4546.0476-.5624.25021l-2.9421 5.52783-1.3383-3.5206c-.071-.1866-.2461-.3131-.4456-.3218-.1994-.0088-.3849.102-.4719.2817l-1.22449 2.5308-.45265-1.1907c-.0594-.1562-.19295-.2725-.3559-.3097-.16295-.0373-.33375.0093-.45516.1242l-.8929.8451-1.07999-.7225c-.22951-.1535-.54005-.092-.69359.1376-.15355.2295-.09196.54.13756.6936l1.41177.9444c.19406.1298.45213.1081.6217-.0524l.63823-.6041.59841 1.5742c.07094.1866.24609.3131.44554.3218.19945.0087.38496-.102.47191-.2818l1.22446-2.5307 1.3176 3.4657c.0697.1833.2401.309.4359.3213.1958.0123.3806-.091.4728-.2641l2.5181-4.7312v7.4213c0 .2496.1841.461.4313.4952.2473.0343.4819-.119.5498-.3592l2.6946-9.52993v5.49393c0 .1608.0773.3117.2077.4057.1305.094.2982.1195.4507.0685l1.9459-.65c.2619-.0875.4033-.3707.3158-.6326-.0874-.2619-.3707-.4034-.6326-.3159l-1.2875.4301v-8.40582zM3 12.5c-.27614 0-.5.2239-.5.5 0 .2761.22386.5.5.5h.5c.27614 0 .5-.2239.5-.5 0-.2761-.22386-.5-.5-.5h-.5z"/></svg>